<?xml version="1.0" encoding="UTF-8"?>
<svg width="100pt" height="100pt" version="1.1" viewBox="0 0 100 100" xmlns="http://www.w3.org/2000/svg">
 <g>
  <path d="m31.398 58.301c-0.80078-0.5-1.3984-1.1992-1.8984-2-1.5 5.1992-3.5 11.398-6.1992 16-4.8984 8.1992-10.301 17.898-10.301 18-1.3008 2.3008-0.5 5.3008 1.8984 6.6016 0.69922 0.39844 1.6016 0.60156 2.3984 0.60156 1.6992 0 3.3984-0.89844 4.3008-2.5 0.10156-0.10156 5.3984-9.6016 10.199-17.801 2.6016-4.3984 4.6016-9.8008 6.1016-14.602-1.5-1-3.1016-2.1016-4.8984-3.3984-0.89844-0.40234-1.3984-0.70312-1.6016-0.90234z"/>
  <path d="m87.602 42.398c-0.5-2-2.6016-3.1992-4.6016-2.6992-1 0.30078-7.8008 2.1016-12 3.3008-0.19922-0.39844-0.30078-0.89844-0.39844-1.3008-1.6016-4.6992-4.1016-11.801-10.203-14.301-1.3984-0.60156-4.6016-2-6.8008-2.8984-8.8008-3.8008-24.102 0.30078-26.102 1.1016-1.1016 0.39844-3.3984 1.3008-10 14.398-0.89844 1.8984-0.19922 4.1016 1.6992 5.1016 0.5 0.30078 1.1016 0.39844 1.6992 0.39844 1.3984 0 2.6992-0.80078 3.3984-2.1016 2.1992-4.3008 5.1992-9.5 6.3984-10.898 1.5-0.5 5.1016-1.3008 9.1016-1.8008-4.3945 6-8.1914 15.301-8.793 18.602-0.89844 4.8008 1.1016 6.3984 1.8984 6.8984 1.6016 1.1016 16.398 11 18.602 13.398-0.69922 3.4023-3.6016 13.203-6.3008 21.402-0.80078 2.5 0.5 5.3008 3.1016 6.1016 0.5 0.19922 1 0.19922 1.5 0.19922 2 0 3.8984-1.3008 4.6016-3.3008 2.6016-7.8008 6.8984-21.5 6.8008-25.398-0.10156-3.8008-3.6016-7.1016-11.199-12.398 2.5-6 6.5-14.699 10.301-19.199 1.3984 2.1016 2.3984 5 3.1016 7.1992 1.1016 3.1992 1.8984 5.5 4 6.6016 0.60156 0.30078 1.1992 0.39844 1.8984 0.39844 0.5 0 1-0.10156 1.5-0.30078 1.6992-0.60156 9.3008-2.6992 14-3.8984 2.0938-0.50391 3.2969-2.6055 2.7969-4.6055z"/>
  <path d="m64.672 3.3125c5.2812 2.2617 7.7266 8.375 5.4648 13.652-2.2578 5.2812-8.3711 7.7266-13.652 5.4648-5.2812-2.2578-7.7266-8.3711-5.4648-13.652s8.375-7.7266 13.652-5.4648"/>
 </g>
</svg>
