<?xml version="1.0" encoding="UTF-8"?>
<svg width="100pt" height="100pt" version="1.1" viewBox="0 0 100 100" xmlns="http://www.w3.org/2000/svg">
 <g>
  <path d="m62 21.996c0 6.6172 5.3828 12 12 12s12-5.3828 12-12c0-6.6172-5.3828-12-12-12s-12 5.3867-12 12z"/>
  <path d="m95 82c0 1.6562-1.3438 3-3 3-3.8359 0-6.3281 1.2461-9.2188 2.6953-3.0938 1.5508-6.6016 3.3047-11.781 3.3047-5.207 0-8.7305-1.7617-11.84-3.3164-2.8789-1.4375-5.3672-2.6836-9.1602-2.6836s-6.2812 1.2461-9.1602 2.6836c-3.1094 1.5547-6.6328 3.3164-11.84 3.3164-5.1797 0-8.6875-1.7539-11.781-3.3047-2.8906-1.4492-5.3828-2.6953-9.2188-2.6953-1.6562 0-3-1.3438-3-3s1.3438-3 3-3c5.2539 0 8.7852 1.7695 11.902 3.3281 2.8633 1.4336 5.3359 2.6719 9.0977 2.6719 3.7891 0 6.2773-1.2422 9.1562-2.6836 3.1094-1.5547 6.6328-3.3164 11.844-3.3164s8.7344 1.7656 11.844 3.3164c2.8789 1.4414 5.3672 2.6836 9.1562 2.6836 3.7617 0 6.2344-1.2344 9.0977-2.6719 3.1172-1.5586 6.6484-3.3281 11.902-3.3281 1.6562 0 3 1.3438 3 3z"/>
  <path d="m95 67c0 1.6562-1.3438 3-3 3-3.8359 0-6.3281 1.2461-9.2188 2.6953-3.0938 1.5508-6.6016 3.3047-11.781 3.3047-5.207 0-8.7305-1.7617-11.84-3.3164-2.8789-1.4375-5.3672-2.6836-9.1602-2.6836s-6.2812 1.2461-9.1602 2.6836c-3.1094 1.5547-6.6328 3.3164-11.84 3.3164-5.1797 0-8.6875-1.7539-11.781-3.3047-2.8906-1.4492-5.3828-2.6953-9.2188-2.6953-1.6562 0-3-1.3438-3-3s1.3438-3 3-3c5.2539 0 8.7852 1.7695 11.902 3.3281 2.8633 1.4336 5.3359 2.6719 9.0977 2.6719 3.7891 0 6.2773-1.2422 9.1562-2.6836 3.1094-1.5547 6.6328-3.3164 11.844-3.3164s8.7344 1.7656 11.844 3.3164c2.8789 1.4414 5.3672 2.6836 9.1562 2.6836 3.7617 0 6.2344-1.2344 9.0977-2.6719 3.1172-1.5586 6.6484-3.3281 11.902-3.3281 1.6562 0 3 1.3438 3 3z"/>
  <path d="m92 49c-5.2539 0-8.7852 1.7695-11.902 3.3281-2.8633 1.4336-5.3359 2.6719-9.0977 2.6719-2.9727 0-5.1484-0.77344-7.3359-1.7969l6.3828-7.1914c1.3711-1.543 1.3008-3.9023-0.16016-5.3711-3.6719-3.6719-10.508-10.953-13.539-11.918-4.4922-2.4688-9.6758-3.793-14.945-3.6992-7.082 0.12109-13.656 2.7109-17.59 6.9258-1.1328 1.2109-1.0664 3.1094 0.14453 4.2383 1.207 1.1328 3.1055 1.0664 4.2383-0.14453 2.8477-3.0469 7.8203-4.9258 13.309-5.0195 2.1445-0.019532 5.4141 0.24609 8.9102 1.5352l-20.82 22.391c-3.9336 0.14844-6.1406-0.84375-9.6875-2.6211-3.1211-1.5586-6.6523-3.3281-11.906-3.3281-1.6562 0-3 1.3438-3 3s1.3438 3 3 3c3.8359 0 6.3281 1.2461 9.2188 2.6953 3.0938 1.5508 6.6016 3.3047 11.781 3.3047 3.0273 0 6.168-0.47656 11.84-3.3164 2.8789-1.4375 5.3672-2.6836 9.1602-2.6836s6.2812 1.2461 9.1602 2.6836c3.1094 1.5547 6.6328 3.3164 11.84 3.3164 5.1797 0 8.6875-1.7539 11.781-3.3047 2.8906-1.4492 5.3828-2.6953 9.2188-2.6953 1.6562 0 3-1.3438 3-3s-1.3438-3-3-3z"/>
 </g>
</svg>
